<svg width="512" height="512" viewBox="0 0 512 512" fill="none" xmlns="http://www.w3.org/2000/svg">
  <defs>
      <feGaussianBlur in="SourceAlpha" stdDeviation="20" result="blur" />
      <feOffset dx="0" dy="20" result="offsetBlur" />
      <feFlood flood-color="rgba(0,0,0,0.15)" result="colorBlur" />
      <feComposite in="colorBlur" in2="offsetBlur" operator="in" result="shadow" />
      <feComposite in="SourceGraphic" in2="shadow" operator="over" />
  </defs>
  
  <g filter="url(#shadow)">
    <rect x="32" y="32" width="448" height="448" rx="128" fill="#2ab7a9"/>
    
    <circle cx="256" cy="256" r="160" stroke="#2ab7a9" stroke-width="40" opacity="0.1"/>
    <circle cx="256" cy="256" r="160" stroke="#80e27e" stroke-width="40" stroke-dasharray="753 251" stroke-dashoffset="251" stroke-linecap="round"/>
    <circle cx="256" cy="256" r="160" stroke="#80deea" stroke-width="40" stroke-dasharray="251 753" stroke-dashoffset="0" stroke-linecap="round"/>

    <path d="M 256 360 C 190 305 160 255 160 215 C 160 175 190 150 220 150 C 245 150 256 175 256 175 C 256 175 267 150 292 150 C 322 150 352 175 352 215 C 352 255 322 305 256 360 Z" fill="white"/>
    
    <path d="M 196 256 L 216 256 L 228 226 L 248 286 L 260 256 L 280 256 L 296 256" stroke="#2ab7a9" stroke-width="14" stroke-linecap="round" stroke-linejoin="round"/>
  </g>
</svg>
